Coordinates
version=1
nRows=17
nColumns=63
inDegrees=yes

Units are S.I. units (second, meters, Newtons, ...)
If the header above contains a line with 'inDegrees', this indicates whether rotational values are in degrees (yes) or radians (no).

endheader
time	pelvis_tilt	pelvis_list	pelvis_rotation	pelvis_tx	pelvis_ty	pelvis_tz	hip_flexion_r	hip_adduction_r	hip_rotation_r	knee_angle_r	knee_angle_r_beta	ankle_angle_r	subtalar_angle_r	mtp_angle_r	hip_flexion_l	hip_adduction_l	hip_rotation_l	knee_angle_l	knee_angle_l_beta	ankle_angle_l	subtalar_angle_l	mtp_angle_l	L5_S1_Flex_Ext	L5_S1_Lat_Bending	L5_S1_axial_rotation	L4_L5_Flex_Ext	L4_L5_Lat_Bending	L4_L5_axial_rotation	L3_L4_Flex_Ext	L3_L4_Lat_Bending	L3_L4_axial_rotation	L2_L3_Flex_Ext	L2_L3_Lat_Bending	L2_L3_axial_rotation	L1_L2_Flex_Ext	L1_L2_Lat_Bending	L1_L2_axial_rotation	L1_T12_Flex_Ext	L1_T12_Lat_Bending	L1_T12_axial_rotation	Abs_r3	Abs_r2	Abs_r1	Abs_t1	Abs_t2	neck_flexion	neck_bending	neck_rotation	arm_flex_r	arm_add_r	arm_rot_r	elbow_flex_r	pro_sup_r	wrist_flex_r	wrist_dev_r	arm_flex_l	arm_add_l	arm_rot_l	elbow_flex_l	pro_sup_l	wrist_flex_l	wrist_dev_l
1.406780	7.675273	19.822640	70.024814	0.236524	1.006945	0.427184	-12.296715	-1.429404	0.496963	23.051320	0.402321	37.142548	1.724908	0.000000	-18.798224	-1.251528	-14.814771	16.803775	0.293281	45.354006	9.991239	0.000000	-0.000576	-0.787772	-1.648932	-0.001070	-1.047737	-1.751990	-0.000946	-1.915389	-1.751990	-0.000658	-1.915389	-1.442815	-0.000535	-1.606425	-1.339757	-0.000329	-1.220259	-1.236699	-0.004114	-8.911435	-9.170865	0.000000	0.000000	-0.997485	5.615385	-2.997291	15.647887	-13.922592	31.010737	149.856547	82.792037	29.961220	-2.996656	32.147332	-16.623098	50.327132	149.804539	87.596108	10.672533	9.182878
1.423729	7.642260	20.028683	70.004188	0.236238	1.007069	0.427802	-12.428783	-1.588716	0.188268	23.172648	0.404439	36.925105	1.623588	0.000000	-18.945129	-1.128297	-14.802700	16.832111	0.293776	45.327505	9.972840	0.000000	-0.014165	-0.804036	-1.646889	-0.026306	-1.069368	-1.749820	-0.023271	-1.954934	-1.749820	-0.016189	-1.954934	-1.441028	-0.013153	-1.639591	-1.338097	-0.008094	-1.245452	-1.235167	-0.101178	-9.095421	-9.159503	0.000000	0.000000	-1.326802	5.722742	-2.989777	15.484845	-13.836787	30.903202	149.851208	83.089677	28.754379	-2.513119	32.199087	-16.988510	49.932837	149.796967	87.409068	11.125732	9.120603
1.440678	7.620355	20.234825	69.959297	0.235990	1.007155	0.428448	-12.559320	-1.742163	-0.099306	23.296800	0.406606	36.738264	1.571231	0.000000	-19.104903	-1.007321	-14.792813	16.843650	0.293977	45.276009	9.979496	0.000000	-0.028345	-0.819015	-1.645160	-0.052639	-1.089290	-1.747982	-0.046568	-1.991353	-1.747982	-0.032395	-1.991353	-1.439515	-0.026321	-1.670135	-1.336692	-0.016196	-1.268654	-1.233870	-0.202464	-9.264862	-9.149886	0.000000	0.000000	-1.573710	5.823754	-2.954167	15.445517	-13.758745	30.778724	149.846144	83.356846	27.736690	-1.992138	32.213903	-17.345619	49.527387	149.789186	87.242076	11.553706	8.965106
1.457627	7.630140	20.423370	69.905938	0.235741	1.007210	0.429044	-12.690364	-1.859114	-0.361419	23.402718	0.408454	36.580700	1.573719	0.000000	-19.264260	-0.917622	-14.759439	16.846722	0.294031	45.208462	10.000054	0.000000	-0.041386	-0.828959	-1.647718	-0.076857	-1.102516	-1.750701	-0.067992	-2.015532	-1.750701	-0.047300	-2.015532	-1.441754	-0.038431	-1.690414	-1.338771	-0.023648	-1.284058	-1.235789	-0.295613	-9.377355	-9.164116	0.000000	0.000000	-1.761149	5.894234	-2.877877	15.517449	-13.701180	30.630314	149.841725	83.596532	26.938180	-1.472868	32.158576	-17.651909	49.100679	149.782090	87.087978	11.967393	8.762235
1.474576	7.673253	20.597391	69.864489	0.235457	1.007247	0.429584	-12.824967	-1.929011	-0.589581	23.489480	0.409969	36.448039	1.589642	0.000000	-19.416663	-0.867841	-14.682575	16.855212	0.294179	45.129496	10.025166	0.000000	-0.055330	-0.834518	-1.656399	-0.102753	-1.109909	-1.759924	-0.090901	-2.029047	-1.759924	-0.063237	-2.029047	-1.449349	-0.051379	-1.701749	-1.345824	-0.031615	-1.292668	-1.242299	-0.395216	-9.440234	-9.212395	0.000000	0.000000	-1.873829	5.963261	-2.809436	15.678703	-13.672721	30.462719	149.838081	83.792142	26.391120	-1.049236	32.064621	-17.883645	48.703171	149.776551	86.947751	12.306861	8.559009
1.491525	7.755736	20.744407	69.789961	0.235171	1.007279	0.430048	-12.945118	-1.958799	-0.760617	23.563447	0.411260	36.342337	1.649511	0.000000	-19.565827	-0.852293	-14.619927	16.854172	0.294161	45.045226	10.069407	0.000000	-0.067216	-0.832799	-1.665106	-0.124826	-1.107623	-1.769175	-0.110429	-2.024868	-1.769175	-0.076821	-2.024868	-1.456967	-0.062417	-1.698244	-1.352898	-0.038407	-1.290006	-1.248829	-0.480116	-9.420791	-9.260817	0.000000	0.000000	-1.949555	5.979169	-2.674506	15.937818	-13.663304	30.289929	149.835648	83.864118	26.222207	-0.642308	31.924437	-18.036564	48.367589	149.772842	86.854480	12.492336	8.262781
1.508475	7.874543	20.879203	69.727809	0.234813	1.007323	0.430445	-13.066744	-1.941800	-0.896418	23.626106	0.412353	36.247564	1.699529	0.000000	-19.711766	-0.879032	-14.530114	16.858744	0.294241	44.967253	10.114049	0.000000	-0.080442	-0.825891	-1.679008	-0.149389	-1.098434	-1.783946	-0.132158	-2.008070	-1.783946	-0.091937	-2.008070	-1.469132	-0.074698	-1.684156	-1.364194	-0.045964	-1.279305	-1.259256	-0.574588	-9.342640	-9.338137	0.000000	0.000000	-1.964560	5.986874	-2.533226	16.269477	-13.693118	30.137397	149.834614	83.815909	26.380829	-0.372086	31.800871	-18.087112	48.119544	149.772175	86.801935	12.576461	7.986434
1.525424	8.034837	20.994746	69.669848	0.234421	1.007393	0.430782	-13.186398	-1.870911	-0.993230	23.674157	0.413192	36.153582	1.745230	0.000000	-19.849804	-0.956831	-14.424125	16.872465	0.294480	44.904348	10.146197	0.000000	-0.093002	-0.813285	-1.693854	-0.172715	-1.081669	-1.799720	-0.152794	-1.977421	-1.799720	-0.106292	-1.977421	-1.482122	-0.086362	-1.658451	-1.376256	-0.053142	-1.259778	-1.270391	-0.664307	-9.200042	-9.420708	0.000000	0.000000	-1.936305	5.987308	-2.379286	16.597427	-13.741151	29.952602	149.835676	83.661367	26.828609	-0.249448	31.734838	-18.044616	47.992362	149.774898	86.811229	12.558990	7.745263
1.542373	8.227477	21.092872	69.611943	0.234008	1.007487	0.431064	-13.296867	-1.763548	-1.078058	23.720021	0.413992	36.072888	1.831005	0.000000	-19.983049	-1.076017	-14.328339	16.891733	0.294816	44.867078	10.177201	0.000000	-0.104578	-0.796605	-1.704050	-0.194212	-1.059485	-1.810553	-0.171812	-1.936866	-1.810553	-0.119522	-1.936866	-1.491044	-0.097111	-1.624437	-1.384541	-0.059756	-1.233941	-1.278037	-0.746992	-9.011356	-9.477414	0.000000	0.000000	-1.849121	5.999580	-2.268284	16.883527	-13.844699	29.775985	149.838901	83.657806	27.290727	-0.543135	31.766607	-17.921888	48.036971	149.781561	86.896033	12.352651	7.565491
1.559322	8.416795	21.194227	69.592413	0.233584	1.007614	0.431286	-13.413416	-1.644733	-1.156339	23.764093	0.414762	36.009819	1.906295	0.000000	-20.118465	-1.209544	-14.210381	16.914921	0.295221	44.856447	10.213074	0.000000	-0.115325	-0.780899	-1.711856	-0.214171	-1.038596	-1.818847	-0.189468	-1.898678	-1.818847	-0.131805	-1.898678	-1.497874	-0.107091	-1.592409	-1.390883	-0.065897	-1.209612	-1.283892	-0.823757	-8.833685	-9.520830	0.000000	0.000000	-1.715535	6.035176	-2.195282	17.117652	-13.971813	29.579158	149.844129	83.636563	27.817315	-0.986876	31.908212	-17.747644	48.198575	149.792641	87.027215	12.069536	7.465756
1.576271	8.593648	21.299434	69.618857	0.233187	1.007775	0.431434	-13.538086	-1.520683	-1.242330	23.804838	0.415473	35.963192	1.971689	0.000000	-20.253211	-1.351819	-14.061571	16.941937	0.295693	44.877214	10.254054	0.000000	-0.124251	-0.767748	-1.713378	-0.230746	-1.021105	-1.820465	-0.204131	-1.866703	-1.820465	-0.142006	-1.866703	-1.499206	-0.115379	-1.565592	-1.392120	-0.070997	-1.189242	-1.285034	-0.887509	-8.684921	-9.529297	0.000000	0.000000	-1.546982	6.097567	-2.194248	17.278315	-14.124404	29.347320	149.850569	83.633762	28.314875	-1.535877	32.154750	-17.540236	48.459642	149.807905	87.189988	11.716273	7.457765
1.593220	8.755647	21.399191	69.683533	0.232862	1.007966	0.431471	-13.667304	-1.389127	-1.318941	23.835614	0.416010	35.919165	1.996876	0.000000	-20.380556	-1.498958	-13.876418	16.966353	0.296119	44.929913	10.288140	0.000000	-0.129453	-0.757300	-1.700961	-0.240407	-1.007208	-1.807271	-0.212678	-1.841298	-1.807271	-0.147952	-1.841298	-1.488341	-0.120210	-1.544285	-1.382031	-0.073969	-1.173057	-1.275721	-0.924670	-8.566725	-9.460237	0.000000	0.000000	-1.352963	6.192116	-2.307965	17.330603	-14.321515	29.072570	149.857677	83.834841	28.632371	-2.258872	32.493018	-17.314725	48.846356	149.824677	87.421694	11.170305	7.511570
1.610169	8.883660	21.508416	69.797851	0.232607	1.008197	0.431404	-13.809389	-1.275128	-1.419442	23.865491	0.416531	35.874776	1.986986	0.000000	-20.506765	-1.638512	-13.702538	16.985699	0.296456	45.023383	10.396982	0.000000	-0.132358	-0.751901	-1.675379	-0.245802	-1.000029	-1.780090	-0.217451	-1.828173	-1.780090	-0.151272	-1.828173	-1.465957	-0.122908	-1.533277	-1.361246	-0.075629	-1.164695	-1.256534	-0.945419	-8.505657	-9.317956	0.000000	0.000000	-1.187137	6.309972	-2.509924	17.308922	-14.513198	28.705871	149.863889	83.973584	28.998437	-2.758902	32.882273	-17.079856	49.248229	149.835179	87.624242	10.646815	7.652788
1.627119	8.966233	21.617486	69.962239	0.232439	1.008445	0.431223	-13.956973	-1.185801	-1.549274	23.884880	0.416870	35.827743	1.934588	0.000000	-20.619445	-1.756972	-13.495727	16.990798	0.296545	45.158609	10.542971	0.000000	-0.132337	-0.752904	-1.633773	-0.245763	-1.001362	-1.735883	-0.217417	-1.830610	-1.735883	-0.151248	-1.830610	-1.429551	-0.122888	-1.535322	-1.327440	-0.075617	-1.166248	-1.225329	-0.945272	-8.516999	-9.086553	0.000000	0.000000	-1.034680	6.459152	-2.831413	17.221676	-14.708998	28.246649	149.866197	84.112141	29.441665	-3.099881	33.321829	-16.850885	49.676939	149.831453	87.752089	10.132849	7.881335
1.644068	8.976836	21.758537	70.223789	0.232323	1.008724	0.430910	-14.137731	-1.148264	-1.757793	23.902686	0.417181	35.789486	1.837809	0.000000	-20.744133	-1.836809	-13.251292	16.967596	0.296140	45.322163	10.769148	0.000000	-0.131771	-0.763937	-1.589224	-0.244712	-1.016037	-1.688551	-0.216486	-1.857437	-1.688551	-0.150601	-1.857437	-1.390571	-0.122363	-1.557821	-1.291245	-0.075294	-1.183339	-1.191918	-0.941227	-8.641811	-8.838790	0.000000	0.000000	-0.945580	6.638011	-3.224119	17.087191	-14.872922	27.775294	149.865963	84.111535	29.727220	-2.924973	33.755678	-16.645097	50.020376	149.812504	87.817540	9.757748	8.150028
1.661017	8.941487	21.898436	70.516050	0.232324	1.008983	0.430469	-14.316832	-1.132889	-1.938601	23.919513	0.417474	35.747655	1.633882	0.000000	-20.857821	-1.884676	-12.984262	16.927578	0.295442	45.512919	10.997116	0.000000	-0.128269	-0.781021	-1.536289	-0.238208	-1.038758	-1.632307	-0.210733	-1.898975	-1.632307	-0.146599	-1.898975	-1.344253	-0.119110	-1.592658	-1.248235	-0.073293	-1.209802	-1.152217	-0.916212	-8.835066	-8.544379	0.000000	0.000000	-0.850840	6.835920	-3.694163	16.912828	-14.999235	27.259761	149.859476	84.110028	30.030297	-2.417774	34.166658	-16.467892	50.284340	149.782293	87.793055	9.554753	8.448430
1.677966	8.875673	22.034931	70.844705	0.232374	1.009201	0.429851	-14.498039	-1.138849	-2.167340	23.941757	0.417862	35.727860	1.431633	0.000000	-20.970374	-1.917194	-12.707899	16.864495	0.294341	45.730453	11.237333	0.000000	-0.121962	-0.801592	-1.486823	-0.226495	-1.066117	-1.579750	-0.200371	-1.948990	-1.579750	-0.139390	-1.948990	-1.300970	-0.113254	-1.634606	-1.208044	-0.069689	-1.241665	-1.115117	-0.871160	-9.067764	-8.269264	0.000000	0.000000	-0.740560	7.054745	-4.200155	16.724203	-15.089003	26.729227	149.848967	84.039527	30.305384	-1.519271	34.516684	-16.324680	50.454057	149.747371	87.730999	9.493083	8.733896
